<svg width="1280" height="720" viewBox="0 0 1280 720" fill="none" xmlns="http://www.w3.org/2000/svg">
<path d="M-38.4998 417.5C-226.5 387.1 -264.724 110.5 -242.39 -29L1385.61 -62C1406.78 81.1667 1429.11 368.8 1349.11 374C1269.11 379.2 1247.11 326.167 1246.11 299C1049.31 389.4 863 231 794 179.5C829.5 311.5 654.667 280.333 623 257.5C647.334 315.333 725.31 482.1 568.11 520.5C410.91 558.9 312.167 393.833 279.5 338.5C241.834 359.5 149.5 447.9 -38.4998 417.5Z" fill="#FFC300"/>
<path d="M726.09 367C710.49 346.6 743.257 339.167 761.59 338C798.79 338 785.09 363 773.59 375.5C765.59 384.196 741.69 387.4 726.09 367Z" fill="#FFC300"/>
<path d="M648.921 298.762C641.593 289.081 656.986 285.554 665.599 285C683.075 285 676.639 296.864 671.237 302.795C667.478 306.922 656.25 308.442 648.921 298.762Z" fill="#FFC300"/>
<path d="M716.973 299.381C702.022 305.099 712.053 319.642 718.938 326.198C733.913 338.252 739.025 320.61 739.708 310.282C740.184 303.098 731.925 293.662 716.973 299.381Z" fill="#FFC300"/>
<path d="M684.75 324.489C684.544 332.843 691.558 333.296 695.091 332.478C701.95 329.97 696.152 321.944 692.396 318.244C689.783 315.671 684.957 316.135 684.75 324.489Z" fill="#FFC300"/>
<path d="M568.02 550.895C558.576 561.08 549.694 553.376 546.434 548.251C541.17 537.208 557.388 534.469 566.154 534.48C572.253 534.488 577.465 540.711 568.02 550.895Z" fill="#FFC300"/>
<path d="M63.5055 436.178C104.548 435.625 98.0194 463.167 89.6247 477.007C75.9155 493.297 55.6972 483.737 47.3017 476.92C35.6019 463.57 22.4629 436.732 63.5055 436.178Z" fill="#FFC300"/>
<path d="M13.7718 518.617C10.2949 509.515 19.4056 509.385 24.3957 510.458C30.5768 512.572 29.2247 517.621 27.776 519.881C24.5566 523.252 17.2487 527.719 13.7718 518.617Z" fill="#FFC300"/>
<path d="M1319.29 707.949C1352.75 732.114 1380 767.682 1388.12 808.476C1396.13 848.739 1370.73 887.337 1363.1 928.031C1354.6 973.404 1377.63 1034.3 1340.55 1062.23C1301.44 1091.68 1246.45 1044.59 1198.47 1052.01C1158.44 1058.19 1127.99 1110.28 1088.9 1101.11C1050.04 1092 1042.53 1038.99 1016.2 1009.27C991.602 981.503 948.849 967.844 938.955 931.861C929.055 895.852 952.486 859.282 965.159 823.637C977.063 790.153 985.084 753.7 1011 729.212C1036.7 704.932 1072.99 698.375 1106.99 689.632C1140.52 681.012 1173.93 675.574 1208.16 678.528C1247.14 681.891 1287.83 685.23 1319.29 707.949Z" fill="#FFC300"/>
<path d="M63.2882 687.949C96.7537 712.114 123.998 747.682 132.119 788.476C140.134 828.739 114.731 867.337 107.102 908.031C98.5956 953.404 121.631 1014.3 84.5457 1042.23C45.4372 1071.68 -9.55034 1024.59 -57.5324 1032.01C-97.5554 1038.19 -128.006 1090.28 -167.105 1081.11C-205.961 1072 -213.472 1018.99 -239.804 989.265C-264.399 961.503 -307.151 947.844 -317.045 911.861C-326.945 875.852 -303.514 839.282 -290.841 803.637C-278.937 770.153 -270.916 733.7 -244.998 709.212C-219.298 684.932 -183.014 678.375 -149.006 669.632C-115.476 661.012 -82.0737 655.574 -47.8405 658.528C-8.86454 661.891 31.8253 665.23 63.2882 687.949Z" fill="#FFC300"/>
</svg>
