<svg width="1280" height="462" fill="none" xmlns="http://www.w3.org/2000/svg"><path d="M157.78 349.969C9.98 326.069-20.07 108.614-2.512-1.056L1277.37-27c16.64 112.553 34.2 338.682-28.69 342.77-62.9 4.088-80.19-37.605-80.98-58.963-154.72 71.07-301.187-53.459-355.433-93.947 27.909 103.775-109.54 79.272-134.435 61.321 19.13 45.467 80.432 176.574-43.154 206.763-123.585 30.189-201.214-99.581-226.896-143.083-29.612 16.51-102.202 86.007-250.002 62.108z" fill="#FFC300"/><path d="M758.878 310.267c-12.264-16.038 13.496-21.882 27.909-22.799 29.245 0 18.475 19.654 9.434 29.481-6.289 6.837-25.079 9.356-37.343-6.682zM698.21 256.62c-5.761-7.611 6.341-10.384 13.112-10.819 13.739 0 8.679 9.327 4.432 13.99-2.955 3.244-11.782 4.44-17.544-3.171zm53.501.487c-11.755 4.495-3.868 15.928 1.544 21.083 11.774 9.476 15.792-4.393 16.329-12.513.374-5.648-6.119-13.066-17.873-8.57zm-25.333 19.739c-.162 6.568 5.352 6.924 8.13 6.28 5.392-1.971.834-8.281-2.119-11.189-2.055-2.024-5.849-1.659-6.011 4.909zm-91.77 177.994c-7.425 8.007-14.408 1.95-16.971-2.079-4.138-8.682 8.612-10.835 15.504-10.826 4.795.006 8.892 4.898 1.467 12.905zm-396.635-90.187c32.267-.436 27.134 21.218 20.535 32.098-10.778 12.807-26.673 5.291-33.273-.068-9.199-10.495-19.528-31.595 12.738-32.03zm-39.098 64.811c-2.734-7.156 4.429-7.258 8.352-6.415 4.859 1.662 3.796 5.632 2.657 7.409-2.53 2.65-8.276 6.161-11.009-.994z" fill="#FFC300"/></svg>