<svg width="587" height="453" fill="none" xmlns="http://www.w3.org/2000/svg"><path d="M267.6 1.276c51.332-4.679 106.519 3.262 148.422 27.945 41.356 24.362 50.393 70.002 77.64 105.219 30.38 39.268 103.026 68.765 92.259 114.385-11.354 48.11-101.917 50.342-140.057 88.14-31.813 31.527-16.074 90.538-59.975 110.095-43.628 19.437-95.264-14.688-144.68-18.922-46.156-3.955-97.223 14.744-136.709-5.189-39.514-19.948-48.666-62.76-66.99-97.644C20.295 292.537-3.014 260.19.321 224.634c3.306-35.257 31.346-64.542 55.438-93.91 23.754-28.955 50.07-55.472 84.231-76.346C178.883 30.612 219.341 5.674 267.6 1.276z" fill="#FFC300"/></svg>