<svg width="24" height="24" viewBox="0 0 24 24" fill="none" xmlns="http://www.w3.org/2000/svg">
<path d="M12.0039 8.73652C11.3593 8.73652 10.7291 8.92769 10.193 9.28585C9.657 9.64402 9.23921 10.1531 8.99251 10.7487C8.7458 11.3443 8.68125 11.9997 8.80702 12.632C8.93279 13.2643 9.24323 13.8451 9.69909 14.3009C10.1549 14.7568 10.7357 15.0672 11.368 15.193C12.0003 15.3188 12.6557 15.2542 13.2513 15.0075C13.8469 14.7608 14.356 14.343 14.7142 13.807C15.0723 13.2709 15.2635 12.6407 15.2635 11.9961C15.2645 11.5677 15.1809 11.1434 15.0175 10.7475C14.854 10.3515 14.614 9.9918 14.3111 9.68892C14.0082 9.38603 13.6485 9.14598 13.2525 8.98253C12.8566 8.81909 12.4323 8.73549 12.0039 8.73652ZM12.0039 14.1469C11.5784 14.1438 11.1634 14.0148 10.8111 13.7762C10.4588 13.5375 10.1851 13.1999 10.0244 12.8059C9.86373 12.4119 9.82328 11.9792 9.90819 11.5623C9.99309 11.1453 10.1995 10.7628 10.5015 10.4631C10.8035 10.1633 11.1874 9.95961 11.605 9.87773C12.0225 9.79585 12.455 9.83943 12.8478 10.003C13.2406 10.1665 13.5762 10.4427 13.8123 10.7967C14.0484 11.1507 14.1743 11.5667 14.1744 11.9922C14.1733 12.2761 14.1164 12.5572 14.0067 12.8191C13.8971 13.0811 13.737 13.319 13.5354 13.519C13.3339 13.7191 13.0949 13.8776 12.8321 13.9853C12.5693 14.093 12.2879 14.1479 12.0039 14.1469Z" fill="black"/>
<path d="M12 6.40001e-07C9.62663 6.40001e-07 7.30655 0.703788 5.33316 2.02236C3.35977 3.34094 1.8217 5.21509 0.913451 7.4078C0.00519944 9.60051 -0.232441 12.0133 0.230582 14.3411C0.693605 16.6689 1.83649 18.807 3.51472 20.4853C5.19295 22.1635 7.33115 23.3064 9.65892 23.7694C11.9867 24.2324 14.3995 23.9948 16.5922 23.0865C18.7849 22.1783 20.6591 20.6402 21.9776 18.6668C23.2962 16.6934 24 14.3734 24 12C24.0005 10.424 23.6905 8.86333 23.0876 7.40719C22.4847 5.95105 21.6008 4.62798 20.4864 3.51357C19.372 2.39917 18.049 1.51527 16.5928 0.912398C15.1367 0.309524 13.576 -0.000514143 12 6.40001e-07ZM18.3154 14.7855C18.2292 16.0823 17.7591 17.1636 16.5759 17.8335C16.0437 18.1201 15.4524 18.2797 14.8482 18.2997C13.1518 18.3937 11.4554 18.3506 9.75515 18.3389C9.1383 18.3569 8.52306 18.2667 7.93732 18.0725C7.34332 17.8694 6.82009 17.5001 6.4298 17.0084C6.03951 16.5167 5.79855 15.9233 5.73556 15.2987C5.63279 14.2076 5.604 13.1107 5.64937 12.0157C5.64937 11.2321 5.64937 10.4486 5.64937 9.66503C5.63945 9.07659 5.73089 8.49082 5.91969 7.9334C6.13027 7.33369 6.50963 6.80758 7.01214 6.41837C7.51464 6.02916 8.11889 5.7934 8.75221 5.73947C9.20679 5.67963 9.66492 5.65083 10.1234 5.65328C11.3967 5.65328 12.6739 5.65328 13.9471 5.65328C14.5341 5.64134 15.1205 5.69787 15.6944 5.82174C16.3839 5.98202 17.0047 6.35711 17.4673 6.89293C17.9299 7.42875 18.2104 8.09763 18.2684 8.80313C18.3453 9.71512 18.3741 10.6305 18.3546 11.5455C18.3546 12.6347 18.382 13.7238 18.3115 14.809" fill="black"/>
<path d="M15.4006 7.86288C15.2554 7.86211 15.1132 7.90452 14.9921 7.98472C14.871 8.06492 14.7765 8.1793 14.7206 8.31333C14.6646 8.44735 14.6498 8.59498 14.678 8.73746C14.7061 8.87993 14.7759 9.01083 14.8786 9.11353C14.9813 9.21622 15.1122 9.28607 15.2547 9.31422C15.3972 9.34236 15.5448 9.32752 15.6788 9.27159C15.8129 9.21565 15.9272 9.12114 16.0074 9.00007C16.0876 8.87899 16.1301 8.73681 16.1293 8.59158C16.1344 8.49455 16.119 8.39754 16.0842 8.30683C16.0493 8.21612 15.9958 8.13375 15.9271 8.06504C15.8584 7.99634 15.776 7.94284 15.6853 7.90801C15.5946 7.87319 15.4976 7.85781 15.4006 7.86288Z" fill="black"/>
</svg>
