<svg width="152" height="24" viewBox="0 0 152 24" fill="none" xmlns="http://www.w3.org/2000/svg">
<path d="M29.52 9.344H32.336V12.16H33.264V9.344H36.08V8.416H33.264V5.6H32.336V8.416H29.52V9.344ZM38.2818 7.856H43.9938L39.9618 17.136C39.9618 17.344 40.8578 17.712 41.0658 17.712L45.3378 7.856V7.344C45.3378 7.184 44.9858 6.848 44.8418 6.848H38.2818V7.856ZM54.4803 16.624C53.6483 16.624 52.7843 16.336 52.1443 15.808C51.9683 15.808 51.5683 16.4 51.5683 16.672C52.4163 17.392 53.3923 17.712 54.4803 17.712C57.5043 17.712 58.8163 15.28 58.8163 12.176C58.8163 8.992 57.4243 6.72 54.7843 6.72C52.7363 6.72 51.2323 8.096 51.2323 10.288C51.2323 12.368 52.5443 13.68 54.5603 13.68C56.1443 13.68 57.0243 12.88 57.5043 12.192V12.224C57.5043 14.992 56.5123 16.624 54.4803 16.624ZM54.8483 12.592C53.4083 12.592 52.5603 11.712 52.5603 10.256C52.5603 8.784 53.4563 7.808 54.7683 7.808C56.1603 7.808 57.1043 8.88 57.3923 10.816C57.2803 11.152 56.6883 12.592 54.8483 12.592ZM60.6816 11.152C60.6816 12.928 62.2336 14.112 64.3936 14.112C66.7296 14.112 68.2336 12.768 68.2336 10.944C68.2336 9.376 67.1136 8.592 65.8656 7.968C66.5056 7.568 67.7696 6.608 67.7696 5.04C67.7696 3.376 66.3616 2.208 64.4576 2.208C62.4576 2.208 61.0656 3.488 61.0656 5.248C61.0656 6.592 61.8816 7.36 62.9056 7.936C62.1056 8.384 60.6816 9.44 60.6816 11.152ZM66.9856 11.04C66.9856 12.16 66.0096 13.072 64.4256 13.072C63.0016 13.072 61.8336 12.32 61.8336 11.04C61.8336 9.712 63.0816 8.816 63.8176 8.4C65.3696 9.104 66.9856 9.632 66.9856 11.04ZM62.2816 5.104C62.2816 4.048 63.1776 3.248 64.4576 3.248C65.6736 3.248 66.6496 3.984 66.6496 5.104C66.6496 6.336 65.5456 7.168 64.9376 7.552C63.5616 6.944 62.2816 6.368 62.2816 5.104ZM70.6419 11.776C70.6419 11.968 71.0899 12.384 71.2979 12.384C71.2979 12.384 72.2579 12.032 73.3139 12.032C75.0259 12.032 75.7939 12.96 75.7939 14.256C75.7939 15.696 74.8499 16.608 73.3139 16.608C72.3859 16.608 71.3619 16.272 70.6259 15.472C70.4339 15.472 69.8899 16 69.8899 16.208C70.8019 17.216 72.0339 17.712 73.4259 17.712C75.6659 17.712 77.1059 16.4 77.1059 14.256C77.1059 12.368 75.9859 10.992 73.6819 10.992C72.6419 10.992 71.7779 11.28 71.7779 11.28L72.1459 7.856H76.2579V6.848H71.1859L70.6419 11.776ZM82.9204 11.152C82.9204 12.928 84.4724 14.112 86.6324 14.112C88.9684 14.112 90.4724 12.768 90.4724 10.944C90.4724 9.376 89.3524 8.592 88.1044 7.968C88.7444 7.568 90.0084 6.608 90.0084 5.04C90.0084 3.376 88.6004 2.208 86.6964 2.208C84.6964 2.208 83.3044 3.488 83.3044 5.248C83.3044 6.592 84.1204 7.36 85.1444 7.936C84.3444 8.384 82.9204 9.44 82.9204 11.152ZM89.2244 11.04C89.2244 12.16 88.2484 13.072 86.6644 13.072C85.2404 13.072 84.0724 12.32 84.0724 11.04C84.0724 9.712 85.3204 8.816 86.0564 8.4C87.6084 9.104 89.2244 9.632 89.2244 11.04ZM84.5204 5.104C84.5204 4.048 85.4164 3.248 86.6964 3.248C87.9124 3.248 88.8884 3.984 88.8884 5.104C88.8884 6.336 87.7844 7.168 87.1764 7.552C85.8004 6.944 84.5204 6.368 84.5204 5.104ZM98.0646 13.488C98.0646 13.328 97.7126 12.992 97.5526 12.992H95.7766V6.848H95.1846L92.1446 7.872C92.1446 8.096 92.4806 8.752 92.6086 8.752L94.5286 8.064V12.992H92.6726C92.5126 12.992 92.1766 13.328 92.1766 13.488C92.1766 13.664 92.5126 14 92.6726 14H97.5526C97.7126 14 98.0646 13.664 98.0646 13.488ZM99.2361 7.856H104.948L100.916 17.136C100.916 17.344 101.812 17.712 102.02 17.712L106.292 7.856V7.344C106.292 7.184 105.94 6.848 105.796 6.848H99.2361V7.856ZM112.091 10.432C112.091 12.544 113.723 14.112 115.899 14.112C118.091 14.112 119.723 12.544 119.723 10.432C119.723 8.288 118.091 6.72 115.899 6.72C113.723 6.72 112.091 8.288 112.091 10.432ZM113.403 10.432C113.403 8.88 114.443 7.824 115.899 7.824C117.371 7.824 118.411 8.88 118.411 10.432C118.411 11.968 117.339 13.024 115.899 13.024C114.459 13.024 113.403 11.968 113.403 10.432ZM121.131 7.856H126.843L122.811 17.136C122.811 17.344 123.707 17.712 123.915 17.712L128.187 7.856V7.344C128.187 7.184 127.835 6.848 127.691 6.848H121.131V7.856ZM133.874 7.856H139.586L135.554 17.136C135.554 17.344 136.45 17.712 136.658 17.712L140.93 7.856V7.344C140.93 7.184 140.578 6.848 140.434 6.848H133.874V7.856ZM142.529 10.432C142.529 12.544 144.161 14.112 146.337 14.112C148.529 14.112 150.161 12.544 150.161 10.432C150.161 8.288 148.529 6.72 146.337 6.72C144.161 6.72 142.529 8.288 142.529 10.432ZM143.841 10.432C143.841 8.88 144.881 7.824 146.337 7.824C147.809 7.824 148.849 8.88 148.849 10.432C148.849 11.968 147.777 13.024 146.337 13.024C144.897 13.024 143.841 11.968 143.841 10.432Z" fill="#111111"/>
<line x1="30" y1="23.75" x2="152" y2="23.75" stroke="#111111" stroke-width="0.5"/>
<circle cx="12" cy="12" r="12" fill="#111111"/>
<path d="M18.8055 16.6415L16.8316 18.5995C16.5403 18.8983 16.1541 18.9995 15.7779 19C14.1146 18.9502 12.5424 18.1331 11.2515 17.2942C9.13257 15.7526 7.18837 13.8412 5.96815 11.5314C5.50015 10.5628 4.95103 9.32691 5.00349 8.24577C5.00817 7.83907 5.11777 7.43992 5.40419 7.17777L7.37803 5.20492C7.7879 4.85629 8.18428 4.97683 8.44657 5.38292L10.0345 8.39411C10.2017 8.75084 10.1058 9.13307 9.85643 9.38797L9.12922 10.1148C9.08433 10.1763 9.05574 10.2463 9.05502 10.3225C9.33388 11.4019 10.1787 12.3968 10.925 13.0815C11.6712 13.7662 12.4734 14.6938 13.5147 14.9134C13.6434 14.9493 13.8011 14.9619 13.8931 14.8763L14.7391 14.016C15.0307 13.795 15.4518 13.6869 15.7631 13.8676H15.7779L18.6422 15.5586C19.0627 15.8222 19.1065 16.3316 18.8055 16.6415Z" fill="white"/>
</svg>
