<svg width="183" height="24" viewBox="0 0 183 24" fill="none" xmlns="http://www.w3.org/2000/svg">
<line x1="28" y1="23.75" x2="180" y2="23.75" stroke="#111111" stroke-width="0.5"/>
<path d="M30.144 16L34.352 10.848V16H35.584V8.848H34.704L30.496 14V8.848H29.248V16H30.144ZM43.0358 16H44.2678V8.848H43.0358V11.824H39.1798V8.848H37.9318V16H39.1798V12.832H43.0358V16ZM51.9435 4.832C51.9435 4.656 51.5915 4.32 51.4315 4.32H50.0075C49.8475 4.32 49.4955 4.656 49.4955 4.832C49.4955 4.992 49.8475 5.328 50.0075 5.328H50.6955V8.96C50.3275 8.816 49.9275 8.72 49.4795 8.72C47.5435 8.72 46.1355 10.272 46.1355 12.448C46.1355 14.544 47.4315 16.112 49.2075 16.112C49.7995 16.112 50.2955 15.92 50.6955 15.616V19.6H51.9435V15.888C52.2955 16.032 52.7115 16.112 53.1595 16.112C55.0955 16.112 56.5035 14.576 56.5035 12.4C56.5035 10.288 55.2075 8.72 53.4315 8.72C52.8235 8.72 52.3435 8.912 51.9435 9.232V4.832ZM55.1755 12.416C55.1755 13.968 54.3755 15.04 53.0635 15.04C52.6475 15.04 52.2635 14.928 51.9435 14.736V10.24C52.2635 9.968 52.6795 9.824 53.1435 9.824C54.3755 9.824 55.1755 10.896 55.1755 12.416ZM47.4635 12.432C47.4635 10.88 48.2635 9.808 49.5755 9.808C49.9755 9.808 50.3755 9.92 50.6955 10.112V14.624C50.3595 14.88 49.9435 15.024 49.4955 15.024C48.2635 15.024 47.4635 13.952 47.4635 12.432ZM57.8818 12.432C57.8818 14.544 59.4658 16.112 61.6258 16.112C63.7858 16.112 65.3698 14.544 65.3698 12.432C65.3698 10.288 63.7858 8.72 61.6258 8.72C59.4658 8.72 57.8818 10.288 57.8818 12.432ZM59.2098 12.432C59.2098 10.88 60.1858 9.824 61.6258 9.824C63.0658 9.824 64.0418 10.88 64.0418 12.432C64.0418 13.968 63.0658 15.024 61.6258 15.024C60.1858 15.024 59.2098 13.968 59.2098 12.432ZM73.857 19.168C76.657 19.168 78.289 17.808 78.289 17.808C78.289 17.632 77.921 17.152 77.745 17.152C77.745 17.152 76.209 18.144 73.937 18.144C70.417 18.144 68.049 15.776 68.049 12.464C68.049 9.104 70.481 6.752 73.729 6.752C76.881 6.752 79.457 8.96 79.457 12.4C79.457 14.4 78.593 15.072 77.745 15.072C77.089 15.072 76.753 14.656 76.753 13.92V9.44C75.921 8.944 74.961 8.72 74.033 8.72C71.457 8.72 70.065 10.4 70.065 12.448C70.065 14.56 71.553 16.112 73.537 16.112C74.481 16.112 75.201 15.744 75.745 15.216C76.097 15.792 76.785 16.112 77.697 16.112C79.409 16.112 80.577 14.976 80.577 12.448C80.577 8.352 77.505 5.744 73.745 5.744C69.857 5.744 66.913 8.56 66.913 12.464C66.913 16.336 69.809 19.168 73.857 19.168ZM71.393 12.416C71.393 10.88 72.321 9.808 74.033 9.808C74.513 9.808 75.041 9.904 75.521 10.064V14.432C75.089 14.816 74.481 15.024 73.825 15.024C72.337 15.024 71.393 13.952 71.393 12.416ZM88.8446 16L89.0046 18.24H89.9326L90.0446 14.992H88.8766V8.848H83.7246V12C83.7246 13.456 83.2606 14.4 82.8126 14.992H81.8686L81.9806 18.24H82.9246L83.0686 16H88.8446ZM84.8926 12V9.856H87.6446V14.992H84.0446C84.4606 14.336 84.8926 13.296 84.8926 12ZM94.5899 16.112C96.8139 16.112 98.3979 14.576 98.3979 12.4C98.3979 10.288 96.9259 8.72 94.9259 8.72C94.0939 8.72 93.4539 9.008 92.9579 9.44C92.9099 9.248 92.4939 8.848 92.3339 8.848H91.5819V8.992C91.5819 8.992 91.7099 9.28 91.7099 10.224V19.6H92.9579V15.792C93.4379 16 93.9979 16.112 94.5899 16.112ZM97.0859 12.416C97.0859 13.968 96.1099 15.04 94.5419 15.04C93.9339 15.04 93.3899 14.88 92.9579 14.624V10.416C93.3739 10.048 93.9819 9.824 94.6379 9.824C96.1259 9.824 97.0859 10.896 97.0859 12.416ZM106.386 9.28C106.386 9.184 105.49 8.768 105.282 8.768L102.77 14.512L100.306 8.768C100.098 8.768 99.2022 9.184 99.2022 9.28L102.162 16L100.562 19.072C100.562 19.184 101.506 19.616 101.714 19.616L106.386 9.28ZM107.89 16H109.138V9.856H112.674V8.848H107.89V16ZM113.625 12.432C113.625 14.544 115.209 16.112 117.369 16.112C119.529 16.112 121.113 14.544 121.113 12.432C121.113 10.288 119.529 8.72 117.369 8.72C115.209 8.72 113.625 10.288 113.625 12.432ZM114.953 12.432C114.953 10.88 115.929 9.824 117.369 9.824C118.809 9.824 119.785 10.88 119.785 12.432C119.785 13.968 118.809 15.024 117.369 15.024C115.929 15.024 114.953 13.968 114.953 12.432ZM128.4 6.048C128.4 5.888 127.936 5.584 127.76 5.584C127.76 5.584 127.344 6.72 126.16 6.72C124.992 6.72 124.544 5.584 124.544 5.584C124.368 5.584 123.904 5.888 123.904 6.048C123.904 6.048 124.496 7.632 126.16 7.632C127.808 7.632 128.4 6.048 128.4 6.048ZM123.872 16L128.08 10.848V16H129.312V8.848H128.432L124.224 14V8.848H122.976V16H123.872ZM131.308 15.84C131.308 15.952 132.252 16.064 132.46 16.064L133.148 10.416L135.372 15.68H136.268L138.492 10.416L139.18 16.064C139.372 16.064 140.332 15.952 140.332 15.84L139.372 8.848H138.012L135.82 14L133.612 8.848H132.252L131.308 15.84ZM147.964 12.816C148.124 12.816 148.508 12.432 148.508 12.256C148.508 10.128 147.34 8.72 145.308 8.72C143.164 8.72 141.692 10.272 141.692 12.384C141.692 14.576 143.26 16.112 145.532 16.112C146.588 16.112 147.596 15.776 148.252 15.104C148.252 14.896 147.772 14.416 147.58 14.416C147.084 14.832 146.316 15.024 145.564 15.024C144.044 15.024 143.084 14.176 142.988 12.816H147.964ZM145.26 9.808C146.588 9.808 147.276 10.688 147.276 11.872H142.988C143.084 10.608 144.012 9.808 145.26 9.808ZM156.627 16L156.787 18.24H157.715L157.827 14.992H156.659V8.848H151.507V12C151.507 13.456 151.043 14.4 150.595 14.992H149.651L149.763 18.24H150.707L150.851 16H156.627ZM152.675 12V9.856H155.427V14.992H151.827C152.243 14.336 152.675 13.296 152.675 12ZM159.012 15.152C159.012 15.472 159.684 16.128 160.004 16.128C160.324 16.128 160.98 15.472 160.98 15.152C160.98 14.832 160.324 14.176 160.004 14.176C159.684 14.176 159.012 14.832 159.012 15.152ZM165.712 16.112C167.936 16.112 169.52 14.576 169.52 12.4C169.52 10.288 168.048 8.72 166.048 8.72C165.216 8.72 164.576 9.008 164.08 9.44C164.032 9.248 163.616 8.848 163.456 8.848H162.704V8.992C162.704 8.992 162.832 9.28 162.832 10.224V19.6H164.08V15.792C164.56 16 165.12 16.112 165.712 16.112ZM168.208 12.416C168.208 13.968 167.232 15.04 165.664 15.04C165.056 15.04 164.512 14.88 164.08 14.624V10.416C164.496 10.048 165.104 9.824 165.76 9.824C167.248 9.824 168.208 10.896 168.208 12.416ZM176.719 4.832C176.719 4.656 176.367 4.32 176.207 4.32H174.783C174.623 4.32 174.271 4.656 174.271 4.832C174.271 4.992 174.623 5.328 174.783 5.328H175.471V8.96C175.103 8.816 174.703 8.72 174.255 8.72C172.319 8.72 170.911 10.272 170.911 12.448C170.911 14.544 172.207 16.112 173.983 16.112C174.575 16.112 175.071 15.92 175.471 15.616V19.6H176.719V15.888C177.071 16.032 177.487 16.112 177.935 16.112C179.871 16.112 181.279 14.576 181.279 12.4C181.279 10.288 179.983 8.72 178.207 8.72C177.599 8.72 177.119 8.912 176.719 9.232V4.832ZM179.951 12.416C179.951 13.968 179.151 15.04 177.839 15.04C177.423 15.04 177.039 14.928 176.719 14.736V10.24C177.039 9.968 177.455 9.824 177.919 9.824C179.151 9.824 179.951 10.896 179.951 12.416ZM172.239 12.432C172.239 10.88 173.039 9.808 174.351 9.808C174.751 9.808 175.151 9.92 175.471 10.112V14.624C175.135 14.88 174.719 15.024 174.271 15.024C173.039 15.024 172.239 13.952 172.239 12.432Z" fill="#111111"/>
<circle cx="12" cy="12" r="12" fill="#111111"/>
<path d="M19 15.4V9.1C19 9.1 12.63 13.545 12.0105 13.7757C11.4015 13.5555 5 9.1 5 9.1V15.4C5 16.275 5.1855 16.45 6.05 16.45H17.95C18.8351 16.45 19 16.2964 19 15.4ZM18.9899 7.86485C18.9899 7.2275 18.804 7 17.95 7H6.05C5.1715 7 5 7.273 5 7.91L5.0105 8.008C5.0105 8.008 11.3347 12.362 12.0105 12.6C12.7245 12.3235 19 7.91 19 7.91L18.9899 7.86485Z" fill="#FBFBFB"/>
</svg>
