<svg width="24" height="24" viewBox="0 0 24 24" fill="none" xmlns="http://www.w3.org/2000/svg">
<circle cx="12" cy="12" r="12" fill="#111111"/>
<path d="M15.325 13.372C15.5 13.463 15.612 13.512 15.647 13.582C15.689 13.659 15.675 14.009 15.5 14.408C15.36 14.8 14.632 15.178 14.31 15.192C13.988 15.206 13.981 15.444 12.238 14.681C10.495 13.918 9.445 12.056 9.361 11.937C9.277 11.818 8.689 10.971 8.717 10.11C8.752 9.256 9.2 8.85 9.382 8.682C9.55 8.5 9.739 8.479 9.858 8.5H10.187C10.292 8.5 10.439 8.458 10.572 8.815L11.055 10.124C11.097 10.215 11.125 10.32 11.062 10.432L10.873 10.719L10.6 11.013C10.516 11.097 10.418 11.188 10.516 11.363C10.6 11.545 10.95 12.126 11.44 12.609C12.077 13.225 12.637 13.428 12.805 13.519C12.973 13.617 13.078 13.603 13.183 13.491L13.75 12.833C13.883 12.658 13.995 12.7 14.156 12.756L15.325 13.372ZM12 5C12.9193 5 13.8295 5.18106 14.6788 5.53284C15.5281 5.88463 16.2997 6.40024 16.9498 7.05025C17.5998 7.70026 18.1154 8.47194 18.4672 9.32122C18.8189 10.1705 19 11.0807 19 12C19 13.8565 18.2625 15.637 16.9498 16.9497C15.637 18.2625 13.8565 19 12 19C10.621 19 9.34 18.601 8.255 17.915L5 19L6.085 15.745C5.37486 14.6251 4.9985 13.3261 5 12C5 10.1435 5.7375 8.36301 7.05026 7.05025C8.36301 5.7375 10.1435 5 12 5ZM12 6.4C10.5148 6.4 9.09041 6.99 8.04021 8.0402C6.99 9.09041 6.4 10.5148 6.4 12C6.4 13.204 6.778 14.317 7.422 15.227L6.75 17.25L8.773 16.578C9.71646 17.2455 10.8443 17.6027 12 17.6C13.4852 17.6 14.9096 17.01 15.9598 15.9598C17.01 14.9096 17.6 13.4852 17.6 12C17.6 10.5148 17.01 9.09041 15.9598 8.0402C14.9096 6.99 13.4852 6.4 12 6.4Z" fill="white"/>
</svg>
