<svg width="24" height="24" viewBox="0 0 24 24" fill="none" xmlns="http://www.w3.org/2000/svg">
<path d="M13.6968 12L17.0916 15.3936C17.3168 15.6188 17.4433 15.9242 17.4433 16.2426C17.4433 16.561 17.3168 16.8664 17.0916 17.0916C16.8664 17.3168 16.561 17.4433 16.2426 17.4433C15.9242 17.4433 15.6188 17.3168 15.3936 17.0916L12 13.6968L8.6064 17.0916C8.38123 17.3168 8.07584 17.4433 7.7574 17.4433C7.43896 17.4433 7.13357 17.3168 6.9084 17.0916C6.68323 16.8664 6.55673 16.561 6.55673 16.2426C6.55673 16.0849 6.58779 15.9288 6.64813 15.7831C6.70847 15.6375 6.79691 15.5051 6.9084 15.3936L10.3032 12L6.9084 8.6064C6.68323 8.38123 6.55673 8.07584 6.55673 7.7574C6.55673 7.59973 6.58779 7.4436 6.64813 7.29792C6.70847 7.15225 6.79691 7.01989 6.9084 6.9084C7.01989 6.79691 7.15225 6.70847 7.29792 6.64813C7.4436 6.58779 7.59973 6.55673 7.7574 6.55673C8.07584 6.55673 8.38123 6.68323 8.6064 6.9084L12 10.3032L15.3936 6.9084C15.6188 6.68323 15.9242 6.55673 16.2426 6.55673C16.561 6.55673 16.8664 6.68323 17.0916 6.9084C17.3168 7.13357 17.4433 7.43896 17.4433 7.7574C17.4433 8.07584 17.3168 8.38123 17.0916 8.6064L13.6968 12ZM12 24C5.3724 24 0 18.6276 0 12C0 5.3724 5.3724 0 12 0C18.6276 0 24 5.3724 24 12C24 18.6276 18.6276 24 12 24ZM12 21.6C14.5461 21.6 16.9879 20.5886 18.7882 18.7882C20.5886 16.9879 21.6 14.5461 21.6 12C21.6 9.45392 20.5886 7.01212 18.7882 5.21178C16.9879 3.41143 14.5461 2.4 12 2.4C9.45392 2.4 7.01212 3.41143 5.21178 5.21178C3.41143 7.01212 2.4 9.45392 2.4 12C2.4 14.5461 3.41143 16.9879 5.21178 18.7882C7.01212 20.5886 9.45392 21.6 12 21.6Z" fill="white"/>
</svg>
